<svg width="200" height="200" version="1.1" viewBox="0 0 52.917 52.917" xml:space="preserve" xmlns="http://www.w3.org/2000/svg" xmlns:xlink="http://www.w3.org/1999/xlink"><defs><linearGradient id="b" x1="71.642" x2="113.37" y1="132.85" y2="176.67" gradientTransform="matrix(.99123 0 0 1.0039 -20.889 -79.005)" gradientUnits="userSpaceOnUse"><stop stop-color="#ff0" offset="0"/><stop stop-color="#d45500" offset="1"/></linearGradient><linearGradient id="a" x1="151.47" x2="107.9" y1="184.86" y2="115.69" gradientTransform="translate(-34.606 -69.692)" gradientUnits="userSpaceOnUse"><stop stop-color="#e02127" offset="0"/><stop stop-color="#ff7f2a" offset="1"/></linearGradient></defs><g transform="matrix(.40964 0 0 .36404 -6.421 -1.6722)"><path d="m75.345 145.07c-3.6366-0.32141-8.5233-1.3341-12.089-2.5053l-2.9104-0.9559c-4.0406-1.2906-5.4831-1.7459-8.5678-4.0626l-3.883-3.4414-3.1859-3.6936c-0.73617-0.85346 6.0199 1.9752 6.0966 1.9752 0.07668 0 1.1549 0.29429 2.3961 0.65397s3.3564 0.85019 4.7004 1.09l2.4436 0.43603 7.1438-4e-3 4.0447-0.83543c14.919-3.0815 25.292-12.245 29.963-26.47l1.0318-3.1423 0.87274-5.12-0.13761-4.2729-0.13762-4.2729-0.44102-1.9844c-0.66847-3.0078-1.8734-6.4412-3.3427-9.525l-1.3236-2.7781-1.9446-2.9104-1.9446-2.9104-4.1786-4.1322-4.4699-3.2196-2.6458-1.2685c-3.1288-1.5001-8.4838-3.3675-12.45-4.3417-7.1567-1.7579-11.439-4.16-14.868-8.3412l-1.4072-1.7155-2.3314-4.7625-0.38844-1.5875c-0.21364-0.87312-0.4667-2.3756-0.56236-3.3388l-0.17392-1.7513 0.599-4.4348 0.79146-2.3757c1.7412-5.2265 4.7937-8.8481 10.215-12.119l2.0981-1.266 5.9259-2.4072 3.498-0.87536c1.9239-0.48145 4.0953-0.95505 4.8254-1.0525l1.3274-0.1771 1.7764 5.4196 3.3345 6.6517 1.8447 2.7781c4.9936 7.5204 11.399 13.578 20.069 18.98 4.2883 2.6718 7.0546 4.7607 10.09 7.6196l2.464 2.3205 2.2522 2.8038c6.1423 7.6466 10.182 16.945 11.506 26.484l0.34893 2.5136v9.525l-0.34893 2.5135c-2.1229 15.293-10.9 29.148-23.846 37.643l-2.7781 1.823-3.175 1.5444c-7.0262 3.4176-13.863 5.0959-21.96 5.391l-3.4396 0.12537z" fill="url(#a)" stroke-width=".26458"/><ellipse transform="matrix(.98583 .16777 -.14539 .98937 0 0)" cx="72.359" cy="76.189" rx="24.648" ry="25.313" fill="url(#b)" stroke-width=".26394"/><path d="m76.515 65.369a29.771 27.383 14.745 0 1 11.777 33.385 29.771 27.383 14.745 0 1-38.185 14.546 29.771 27.383 14.745 0 1-17.23-36.135 29.771 27.383 14.745 0 1 1.3061-2.6531 33.17 30.772 35.086 0 0 2.9747 36.519 33.17 30.772 35.086 0 0 45.636 7.094 33.17 30.772 35.086 0 0 4.0688-44.1 33.17 30.772 35.086 0 0-10.348-8.6544z" fill="#fc0" stroke-width=".30044"/><path d="m30.321 87.334a35.465 36.172 60.161 0 0 18.031 40.526 35.465 36.172 60.161 0 0 48.6-15.825 35.465 36.172 60.161 0 0-15.159-47.856 35.465 36.172 60.161 0 0-21.681-3.3713 31.75 30.399 14.949 0 1 15.824 3.5072 31.75 30.399 14.949 0 1 14.156 41.195 31.75 30.399 14.949 0 1-42.48 12.743 31.75 30.399 14.949 0 1-17.29-30.919z" fill="#d45500" stroke-width=".29382"/></g></svg>
